<?xml version="1.0" encoding="UTF-8" standalone="no"?>
<svg
   xmlns:dc="http://purl.org/dc/elements/1.1/"
   xmlns:cc="http://creativecommons.org/ns#"
   xmlns:rdf="http://www.w3.org/1999/02/22-rdf-syntax-ns#"
   xmlns:svg="http://www.w3.org/2000/svg"
   xmlns="http://www.w3.org/2000/svg"
   xmlns:sodipodi="http://sodipodi.sourceforge.net/DTD/sodipodi-0.dtd"
   xmlns:inkscape="http://www.inkscape.org/namespaces/inkscape"
   version="1.1"
   id="Map"
   class="gen-by-synoptic-designer"
   viewBox="0 0 4708 2585"
   xml:space="preserve"
   sodipodi:docname="MOE_2FLR.svg"
   inkscape:version="0.92.4 (5da689c313, 2019-01-14)"><metadata
     id="metadata15"><rdf:RDF><cc:Work
         rdf:about=""><dc:format>image/svg+xml</dc:format><dc:type
           rdf:resource="http://purl.org/dc/dcmitype/StillImage" /></cc:Work></rdf:RDF></metadata><defs
     id="defs13" /><sodipodi:namedview
     pagecolor="#ffffff"
     bordercolor="#666666"
     borderopacity="1"
     objecttolerance="10"
     gridtolerance="10"
     guidetolerance="10"
     inkscape:pageopacity="0"
     inkscape:pageshadow="2"
     inkscape:window-width="1366"
     inkscape:window-height="705"
     id="namedview11"
     showgrid="false"
     inkscape:zoom="0.060322855"
     inkscape:cx="2354"
     inkscape:cy="1292.5"
     inkscape:window-x="-8"
     inkscape:window-y="-8"
     inkscape:window-maximized="1"
     inkscape:current-layer="Map" /><polygon
     id="M001"
     title="Abercrombie and Fitch"
     points="2571,212,2571,265,2568,265,2568,279,2492,279,2492,363,2491,363,2491,622,2512,622,2512,703,2403,703,2403,702,2402,702,2402,700,2401,700,2401,699,2400,699,2400,698,2399,698,2399,696,2398,696,2398,695,2397,695,2397,694,2396,694,2396,693,2395,693,2395,692,2394,692,2394,691,2393,691,2393,689,2392,689,2392,688,2391,688,2391,687,2390,687,2390,686,2389,686,2389,685,2388,685,2388,684,2387,684,2387,683,2386,683,2386,682,2384,682,2384,681,2383,681,2383,680,2382,680,2382,679,2381,679,2381,678,2380,678,2380,677,2379,677,2379,676,2377,676,2377,675,2376,675,2376,674,2375,674,2375,673,2373,673,2373,672,2372,672,2372,671,2370,671,2370,670,2369,670,2369,669,2367,669,2367,668,2366,668,2366,667,2364,667,2364,666,2362,666,2362,665,2360,665,2360,664,2358,664,2358,663,2356,663,2356,662,2354,662,2354,661,2352,661,2352,660,2350,660,2350,659,2347,659,2347,658,2344,658,2344,657,2343,657,2343,621,2350,621,2350,299,2351,299,2351,278,2340,278,2340,212" /><polygon
     id="M002"
     title="D and G Kids"
     points="2570,622,2570,703,2520,703,2520,622" /><polygon
     id="M004"
     title="Ralph Lauren Kids"
     points="2671,622,2671,621,2699,621,2699,703,2637,703,2637,622" /><polygon
     id="M003"
     title="Emporio Armani"
     points="2629,622,2629,703,2589,703,2589,700,2579,700,2579,622" /><polygon
     id="M005"
     title=""
     points="2872,212,2872,190,2921,190,2921,208,2920,208,2920,345,2919,345,2919,440,2846,440,2846,703,2707,703,2707,613,2663,613,2663,614,2500,614,2500,287,2577,287,2577,273,2579,273,2579,212" /><polygon
     id="M033"
     title="Vox Cinema"
     points="3879,34,3879,7,3943,7,3943,34,3995,34,3995,19,4049,19,4049,34,4213,34,4213,38,4246,38,4246,106,4213,106,4213,182,4212,182,4212,205,4211,205,4211,269,4210,269,4210,343,4209,343,4209,417,4208,417,4208,440,3690,440,3690,618,3684,618,3684,620,3683,620,3683,622,3682,622,3682,624,3681,624,3681,625,3680,625,3680,627,3679,627,3679,628,3678,628,3678,630,3677,630,3677,631,3676,631,3676,633,3675,633,3675,634,3674,634,3674,635,3673,635,3673,636,3672,636,3672,637,3671,637,3671,638,3670,638,3670,640,3669,640,3669,641,3668,641,3668,642,3667,642,3667,643,3665,643,3665,644,3664,644,3664,645,3663,645,3663,646,3662,646,3662,647,3661,647,3661,648,3660,648,3660,649,3658,649,3658,650,3657,650,3657,651,3656,651,3656,652,3654,652,3654,653,3652,653,3652,654,3651,654,3651,655,3649,655,3649,656,3647,656,3647,657,3645,657,3645,658,3643,658,3643,659,3641,659,3641,660,3639,660,3639,661,3636,661,3636,662,3633,662,3633,663,3630,663,3630,664,3626,664,3626,665,3621,665,3621,666,3614,666,3614,667,3600,667,3600,666,3593,666,3593,665,3588,665,3588,664,3584,664,3584,663,3581,663,3581,662,3578,662,3578,661,3575,661,3575,660,3573,660,3573,659,3571,659,3571,658,3569,658,3569,657,3567,657,3567,656,3565,656,3565,655,3563,655,3563,654,3562,654,3562,653,3560,653,3560,652,3559,652,3559,651,3557,651,3557,650,3556,650,3556,649,3554,649,3554,648,3553,648,3553,647,3552,647,3552,646,3551,646,3551,645,3550,645,3550,644,3549,644,3549,643,3547,643,3547,642,3546,642,3546,641,3545,641,3545,640,3544,640,3544,638,3543,638,3543,637,3542,637,3542,636,3541,636,3541,635,3540,635,3540,634,3539,634,3539,632,3538,632,3538,631,3537,631,3537,630,3536,630,3536,628,3535,628,3535,627,3534,627,3534,625,3533,625,3533,623,3532,623,3532,622,3531,622,3531,616,3524,616,3524,437,2927,437,2927,378,2928,378,2928,241,2929,241,2929,33,3284,33,3284,34,3413,34,3413,33,3462,33,3462,31,3516,31,3516,34" /></svg>