<?xml version="1.0" encoding="UTF-8" standalone="no"?>
<svg
   xmlns:dc="http://purl.org/dc/elements/1.1/"
   xmlns:cc="http://creativecommons.org/ns#"
   xmlns:rdf="http://www.w3.org/1999/02/22-rdf-syntax-ns#"
   xmlns:svg="http://www.w3.org/2000/svg"
   xmlns="http://www.w3.org/2000/svg"
   xmlns:sodipodi="http://sodipodi.sourceforge.net/DTD/sodipodi-0.dtd"
   xmlns:inkscape="http://www.inkscape.org/namespaces/inkscape"
   version="1.1"
   id="Map"
   class="gen-by-synoptic-designer"
   viewBox="0 0 4708 2585"
   xml:space="preserve"
   sodipodi:docname="MOE_2FLR.svg"
   inkscape:version="0.92.4 (5da689c313, 2019-01-14)"><metadata
     id="metadata77"><rdf:RDF><cc:Work
         rdf:about=""><dc:format>image/svg+xml</dc:format><dc:type
           rdf:resource="http://purl.org/dc/dcmitype/StillImage" /></cc:Work></rdf:RDF></metadata><defs
     id="defs75" /><sodipodi:namedview
     pagecolor="#ffffff"
     bordercolor="#666666"
     borderopacity="1"
     objecttolerance="10"
     gridtolerance="10"
     guidetolerance="10"
     inkscape:pageopacity="0"
     inkscape:pageshadow="2"
     inkscape:window-width="1366"
     inkscape:window-height="705"
     id="namedview73"
     showgrid="false"
     inkscape:zoom="0.060322855"
     inkscape:cx="2867.9014"
     inkscape:cy="1292.5"
     inkscape:window-x="-8"
     inkscape:window-y="-8"
     inkscape:window-maximized="1"
     inkscape:current-layer="Map" /><polygon
     id="moe-M001"
     title="Abercrombie and Fitch"
     points="2571,212,2571,265,2568,265,2568,279,2492,279,2492,363,2491,363,2491,622,2512,622,2512,703,2403,703,2403,702,2402,702,2402,700,2401,700,2401,699,2400,699,2400,698,2399,698,2399,696,2398,696,2398,695,2397,695,2397,694,2396,694,2396,693,2395,693,2395,692,2394,692,2394,691,2393,691,2393,689,2392,689,2392,688,2391,688,2391,687,2390,687,2390,686,2389,686,2389,685,2388,685,2388,684,2387,684,2387,683,2386,683,2386,682,2384,682,2384,681,2383,681,2383,680,2382,680,2382,679,2381,679,2381,678,2380,678,2380,677,2379,677,2379,676,2377,676,2377,675,2376,675,2376,674,2375,674,2375,673,2373,673,2373,672,2372,672,2372,671,2370,671,2370,670,2369,670,2369,669,2367,669,2367,668,2366,668,2366,667,2364,667,2364,666,2362,666,2362,665,2360,665,2360,664,2358,664,2358,663,2356,663,2356,662,2354,662,2354,661,2352,661,2352,660,2350,660,2350,659,2347,659,2347,658,2344,658,2344,657,2343,657,2343,621,2350,621,2350,299,2351,299,2351,278,2340,278,2340,212" /><polygon
     id="moe-M002"
     title="D and G Kids"
     points="2570,622,2570,703,2520,703,2520,622" /><polygon
     id="moe-M004"
     title="Ralph Lauren Kids"
     points="2671,622,2671,621,2699,621,2699,703,2637,703,2637,622" /><polygon
     id="moe-M003"
     title="Emporio Armani"
     points="2629,622,2629,703,2589,703,2589,700,2579,700,2579,622" /><polygon
     id="moe-M015"
     title="Starbucks"
     points="4098,845,4098,846,4099,846,4099,848,4100,848,4100,849,4101,849,4101,850,4102,850,4102,851,4103,851,4103,853,4104,853,4104,854,4105,854,4105,855,4106,855,4106,856,4107,856,4107,857,4108,857,4108,858,4109,858,4109,859,4110,859,4110,860,4111,860,4110,860,4110,861,4109,861,4109,868,4111,868,4111,998,4042,998,4042,848,4047,848,4047,845" /><polygon
     id="moe-M031"
     title="NANOS"
     points="2784,844,2784,954,2750,954,2750,877,2751,877,2751,844" /><polygon
     id="moe-M032"
     title="jacadi"
     points="2736,844,2736,852,2742,852,2742,954,2728,954,2728,953,2709,953,2709,844" /><polygon
     id="moe-M034"
     title="Burberry Children"
     points="2701,843,2701,953,2652,953,2652,952,2639,952,2639,876,2638,876,2638,843" /><polygon
     id="moe-L004A"
     title="Emporio Armani Cafe"
     points="2572,1243,2572,1285,2863,1285,2863,1293,2494,1293,2494,1294,2385,1294,2385,1293,2378,1293,2378,1243" /><polygon
     id="moe-SX06"
     title="Ermenegildo Zegna"
     points="2541,1857,2541,1893,2650,1893,2650,1894,2662,1894,2662,1893,2669,1893,2669,1894,2684,1894,2684,1948,2599,1948,2599,1947,2372,1947,2372,1946,2371,1946,2371,1944,2370,1944,2370,1943,2369,1943,2391,1943,2391,1918,2400,1918,2400,1913,2401,1913,2401,1911,2403,1911,2403,1910,2404,1910,2404,1909,2405,1909,2405,1908,2406,1908,2406,1907,2407,1907,2407,1906,2409,1906,2409,1905,2410,1905,2410,1904,2411,1904,2411,1903,2412,1903,2412,1902,2413,1902,2413,1901,2414,1901,2414,1900,2415,1900,2415,1899,2416,1899,2416,1898,2417,1898,2417,1897,2418,1897,2418,1896,2419,1896,2419,1895,2420,1895,2420,1894,2421,1894,2421,1893,2422,1893,2422,1892,2423,1892,2423,1891,2424,1891,2424,1889,2425,1889,2425,1888,2426,1888,2426,1887,2427,1887,2427,1886,2428,1886,2428,1885,2429,1885,2429,1883,2430,1883,2430,1882,2431,1882,2431,1881,2432,1881,2432,1879,2433,1879,2433,1878,2434,1878,2434,1876,2435,1876,2435,1875,2436,1875,2436,1874,2437,1874,2437,1872,2438,1872,2438,1870,2439,1870,2439,1869,2440,1869,2440,1867,2441,1867,2441,1866,2442,1866,2442,1864,2443,1864,2443,1862,2444,1862,2444,1860,2445,1860,2445,1858,2446,1858,2446,1857" /><polygon
     id="moe-SX010"
     title="Monica Vinader"
     points="2451,1597,2451,1629,2383,1629,2383,1597" /><polygon
     id="moe-SX02B"
     title="Roberto Cavalli"
     points="2164,1691,2163,1691,2163,1692,2162,1692,2162,1694,2161,1694,2161,1695,2160,1695,2160,1697,2159,1697,2159,1699,2158,1699,2158,1701,2157,1701,2157,1702,2156,1702,2156,1704,2155,1704,2155,1706,2154,1706,2154,1708,2153,1708,2153,1710,2152,1710,2152,1712,2151,1712,2151,1715,2150,1715,2150,1717,2149,1717,2149,1719,2148,1719,2148,1722,2147,1722,2147,1725,2146,1725,2146,1727,2145,1727,2145,1730,2144,1730,2144,1734,2143,1734,2143,1737,2142,1737,2142,1741,2141,1741,2141,1745,2140,1745,2140,1747,2079,1747,2079,1746,1954,1746,1954,1747,1953,1747,1953,1748,1952,1748,1952,1749,1950,1749,1950,1750,1949,1750,1949,1751,1948,1751,1948,1752,1947,1752,1947,1753,1946,1753,1946,1754,1945,1754,1945,1755,1944,1755,1944,1756,1943,1756,1943,1757,1942,1757,1942,1758,1941,1758,1941,1759,1940,1759,1940,1760,1939,1760,1939,1761,1938,1761,1938,1762,1937,1762,1937,1763,1936,1763,1936,1764,1935,1764,1935,1765,1934,1765,1934,1766,1933,1766,1933,1767,1932,1767,1932,1768,1930,1768,1930,1769,1929,1769,1929,1770,1928,1770,1928,1771,1927,1771,1927,1772,1926,1772,1926,1773,1925,1773,1925,1774,1924,1774,1924,1775,1923,1775,1923,1776,1922,1776,1922,1777,1921,1777,1921,1778,1920,1778,1920,1779,1919,1779,1919,1780,1918,1780,1918,1781,1917,1781,1917,1782,1916,1782,1916,1783,1915,1783,1915,1784,1914,1784,1914,1785,1913,1785,1913,1786,1912,1786,1912,1787,1910,1787,1910,1788,1909,1788,1909,1789,1908,1789,1908,1790,1907,1790,1907,1791,1906,1791,1906,1792,1905,1792,1905,1793,1904,1793,1904,1794,1903,1794,1903,1795,1902,1795,1902,1796,1902,1795,1901,1795,1901,1794,1900,1794,1900,1793,1899,1793,1899,1792,1898,1792,1898,1791,1897,1791,1897,1790,1896,1790,1896,1789,1895,1789,1895,1788,1894,1788,1894,1787,1893,1787,1893,1786,1892,1786,1892,1785,1891,1785,1891,1784,1890,1784,1890,1783,1889,1783,1889,1782,1888,1782,1888,1781,1887,1781,1887,1780,1886,1780,1886,1779,1885,1779,1885,1778,1884,1778,1884,1777,1883,1777,1883,1776,1882,1776,1882,1775,1881,1775,1881,1774,1880,1774,1880,1773,1879,1773,1879,1772,1878,1772,1878,1771,1879,1771,1879,1770,1880,1770,1880,1769,1881,1769,1881,1768,1882,1768,1882,1767,1883,1767,1883,1766,1884,1766,1884,1765,1885,1765,1885,1764,1886,1764,1886,1763,1887,1763,1887,1762,1888,1762,1888,1761,1889,1761,1889,1760,1890,1760,1890,1759,1891,1759,1891,1758,1892,1758,1892,1757,1893,1757,1893,1756,1894,1756,1894,1755,1895,1755,1895,1754,1896,1754,1896,1753,1897,1753,1897,1752,1898,1752,1898,1751,1899,1751,1899,1750,1900,1750,1900,1749,1901,1749,1901,1748,1902,1748,1902,1747,1903,1747,1903,1746,1904,1746,1904,1745,1905,1745,1905,1744,1906,1744,1906,1743,1907,1743,1907,1742,1908,1742,1908,1741,1909,1741,1909,1740,1910,1740,1910,1739,1911,1739,1911,1738,1912,1738,1912,1737,1913,1737,1913,1736,1914,1736,1914,1726,1941,1726,1941,1710,2020,1710,2020,1691" /><polygon
     id="moe-SX03"
     title="Salvatore Ferragamo"
     points="2139,1755,2138,1755,2138,1763,2137,1763,2137,1779,2136,1779,2136,1784,2137,1784,2137,1801,2138,1801,2138,1808,2139,1808,2139,1814,2140,1814,2140,1819,2141,1819,2141,1823,2142,1823,2142,1827,2143,1827,2143,1830,2144,1830,2144,1833,2145,1833,2145,1836,2146,1836,2146,1838,2003,1838,2003,1837,2002,1837,2002,1836,2001,1836,2001,1835,2000,1835,2000,1834,1999,1834,1999,1833,1998,1833,1998,1832,1997,1832,1997,1831,1996,1831,1996,1830,1995,1830,1995,1829,1994,1829,1994,1828,1993,1828,1993,1827,1992,1827,1992,1826,1991,1826,1991,1825,1990,1825,1990,1824,1989,1824,1989,1823,1988,1823,1988,1822,1987,1822,1987,1821,1986,1821,1986,1820,1985,1820,1985,1819,1984,1819,1984,1818,1983,1818,1983,1816,1982,1816,1982,1815,1981,1815,1981,1814,1980,1814,1980,1813,1979,1813,1979,1812,1978,1812,1978,1811,1977,1811,1977,1810,1976,1810,1976,1809,1975,1809,1975,1808,1974,1808,1974,1807,1973,1807,1973,1806,1972,1806,1972,1805,1971,1805,1971,1804,1970,1804,1970,1803,1969,1803,1969,1802,1968,1802,1968,1801,1967,1801,1967,1800,1965,1800,1965,1801,1964,1801,1964,1802,1963,1802,1963,1803,1962,1803,1962,1804,1961,1804,1961,1805,1960,1805,1960,1806,1959,1806,1959,1807,1958,1807,1958,1808,1957,1808,1957,1809,1956,1809,1956,1810,1955,1810,1955,1811,1954,1811,1954,1812,1953,1812,1953,1813,1952,1813,1952,1814,1951,1814,1951,1815,1950,1815,1950,1816,1949,1816,1949,1817,1948,1817,1948,1818,1947,1818,1947,1819,1946,1819,1946,1820,1945,1820,1945,1821,1944,1821,1944,1822,1943,1822,1943,1823,1942,1823,1942,1824,1941,1824,1941,1825,1940,1825,1940,1826,1939,1826,1939,1827,1938,1827,1938,1828,1937,1828,1937,1829,1936,1829,1936,1830,1936,1829,1935,1829,1935,1828,1934,1828,1934,1827,1933,1827,1933,1826,1932,1826,1932,1825,1931,1825,1931,1824,1930,1824,1930,1823,1929,1823,1929,1822,1928,1822,1928,1821,1927,1821,1927,1820,1926,1820,1926,1819,1925,1819,1925,1818,1924,1818,1924,1817,1923,1817,1923,1816,1922,1816,1922,1815,1921,1815,1921,1814,1920,1814,1920,1813,1919,1813,1919,1812,1918,1812,1918,1811,1917,1811,1917,1810,1916,1810,1916,1809,1915,1809,1915,1808,1914,1808,1914,1807,1913,1807,1913,1806,1912,1806,1912,1805,1911,1805,1911,1804,1910,1804,1910,1803,1909,1803,1909,1802,1908,1802,1909,1802,1909,1801,1910,1801,1910,1800,1911,1800,1911,1799,1912,1799,1912,1798,1913,1798,1913,1797,1914,1797,1914,1796,1915,1796,1915,1795,1916,1795,1916,1794,1917,1794,1917,1793,1918,1793,1918,1792,1919,1792,1919,1791,1920,1791,1920,1790,1921,1790,1921,1789,1922,1789,1922,1788,1923,1788,1923,1787,1924,1787,1924,1786,1926,1786,1926,1785,1927,1785,1927,1784,1928,1784,1928,1783,1929,1783,1929,1782,1930,1782,1930,1781,1931,1781,1931,1780,1932,1780,1932,1779,1933,1779,1933,1778,1934,1778,1934,1777,1935,1777,1935,1776,1936,1776,1936,1775,1937,1775,1937,1774,1938,1774,1938,1773,1939,1773,1939,1772,1940,1772,1940,1771,1941,1771,1941,1770,1942,1770,1942,1769,1943,1769,1943,1768,1944,1768,1944,1767,1946,1767,1946,1766,1947,1766,1947,1765,1948,1765,1948,1764,1949,1764,1949,1763,1950,1763,1950,1762,1951,1762,1951,1761,1952,1761,1952,1760,1953,1760,1953,1759,1954,1759,1954,1758,1955,1758,1955,1757,1956,1757,1956,1756,1957,1756,1957,1755" /><polygon
     id="moe-SX05"
     title=""
     points="2149,1846,2149,1847,2150,1847,2150,1849,2151,1849,2151,1851,2152,1851,2152,1853,2153,1853,2153,1855,2154,1855,2154,1857,2155,1857,2155,1859,2156,1859,2156,1861,2157,1861,2157,1863,2158,1863,2158,1865,2159,1865,2159,1866,2160,1866,2160,1868,2161,1868,2161,1870,2162,1870,2162,1871,2163,1871,2163,1873,2164,1873,2164,1874,2165,1874,2165,1876,2166,1876,2166,1877,2167,1877,2167,1879,2168,1879,2168,1880,2169,1880,2169,1881,2170,1881,2170,1883,2171,1883,2171,1884,2172,1884,2172,1885,2173,1885,2173,1886,2174,1886,2174,1888,2175,1888,2175,1889,2176,1889,2176,1890,2177,1890,2177,1891,2178,1891,2178,1892,2179,1892,2179,1893,2180,1893,2180,1894,2181,1894,2181,1895,2182,1895,2182,1896,2183,1896,2183,1898,2184,1898,2184,1899,2185,1899,2185,1900,2187,1900,2187,1901,2188,1901,2188,1902,2189,1902,2189,1903,2190,1903,2190,1904,2191,1904,2191,1905,2192,1905,2192,1906,2193,1906,2193,1907,2194,1907,2194,1908,2195,1908,2195,1909,2197,1909,2197,1910,2198,1910,2198,1911,2199,1911,2199,1912,2200,1912,2200,1913,2201,1913,2200,1913,2200,1916,2201,1916,2201,1917,2209,1917,2209,1924,2208,1924,2208,1943,2231,1943,2230,1943,2230,1944,2229,1944,2229,1945,1998,1945,1998,1929,1949,1929,1949,1842,1948,1842,1948,1841,1947,1841,1947,1840,1946,1840,1946,1839,1945,1839,1945,1838,1944,1838,1944,1837,1943,1837,1943,1836,1942,1836,1943,1836,1943,1835,1944,1835,1944,1834,1945,1834,1945,1833,1946,1833,1946,1832,1947,1832,1947,1831,1948,1831,1948,1830,1949,1830,1949,1829,1950,1829,1950,1828,1951,1828,1951,1827,1952,1827,1952,1826,1953,1826,1953,1825,1954,1825,1954,1824,1955,1824,1955,1823,1956,1823,1956,1822,1957,1822,1957,1821,1958,1821,1958,1820,1959,1820,1959,1819,1960,1819,1960,1818,1961,1818,1961,1817,1962,1817,1962,1816,1963,1816,1963,1815,1964,1815,1964,1814,1965,1814,1965,1813,1966,1813,1966,1812,1967,1812,1967,1813,1968,1813,1968,1814,1969,1814,1969,1815,1970,1815,1970,1816,1971,1816,1971,1817,1972,1817,1972,1819,1973,1819,1973,1820,1974,1820,1974,1821,1975,1821,1975,1822,1976,1822,1976,1823,1977,1823,1977,1824,1978,1824,1978,1825,1979,1825,1979,1826,1980,1826,1980,1827,1981,1827,1981,1828,1982,1828,1982,1829,1983,1829,1983,1830,1984,1830,1984,1831,1985,1831,1985,1832,1986,1832,1986,1833,1987,1833,1987,1834,1988,1834,1988,1835,1989,1835,1989,1836,1990,1836,1990,1837,1991,1837,1991,1838,1992,1838,1992,1839,1993,1839,1993,1840,1994,1840,1994,1841,1995,1841,1995,1842,1996,1842,1996,1843,1997,1843,1997,1844,1998,1844,1998,1845,1999,1845,1999,1846" /><polygon
     id="moe-SX01A"
     title="N Style"
     points="2197,1477,2197,1487,2220,1487,2220,1527,2128,1527,2128,1528,2127,1528,2127,1529,2126,1529,2126,1530,2125,1530,2125,1531,2124,1531,2124,1532,2123,1532,2123,1533,2122,1533,2122,1534,2121,1534,2121,1535,2120,1535,2120,1536,2119,1536,2119,1537,2118,1537,2118,1538,2117,1538,2117,1539,2116,1539,2116,1540,2115,1540,2115,1541,2114,1541,2114,1542,2113,1542,2113,1543,2112,1543,2112,1544,2111,1544,2111,1545,2110,1545,2110,1546,2109,1546,2109,1547,2108,1547,2108,1548,2107,1548,2107,1549,2106,1549,2106,1550,2105,1550,2105,1551,2104,1551,2104,1552,2103,1552,2103,1553,2102,1553,2102,1554,2101,1554,2101,1555,2100,1555,2100,1556,2099,1556,2099,1557,2098,1557,2098,1558,2097,1558,2097,1559,2096,1559,2096,1560,2095,1560,2095,1561,2033,1561,2033,1477" /><polygon
     id="moe-A06"
     title="Harvey Nichols"
     points="1966,211,1966,245,2091,245,2091,210,2266,210,2266,278,2263,278,2263,279,2255,279,2255,585,2254,585,2254,619,2261,619,2261,657,2260,657,2260,658,2258,658,2258,659,2255,659,2255,660,2253,660,2253,661,2251,661,2251,662,2249,662,2249,663,2247,663,2247,664,2245,664,2245,665,2243,665,2243,666,2241,666,2241,667,2239,667,2239,668,2238,668,2238,669,2236,669,2236,670,2235,670,2235,671,2233,671,2233,672,2232,672,2232,673,2219,673,2219,672,1802,672,1802,671,1530,671,1530,673,1213,673,1213,488,1212,488,1212,451,1211,451,1211,450,1210,450,1210,448,1209,448,1209,446,1208,446,1208,444,1207,444,1207,443,1206,443,1206,441,1205,441,1205,439,1204,439,1204,437,1203,437,1203,436,1202,436,1202,434,1201,434,1201,432,1200,432,1200,430,1199,430,1199,429,1198,429,1198,427,1197,427,1197,425,1196,425,1196,423,1195,423,1195,422,1194,422,1194,420,1193,420,1193,418,1192,418,1192,416,1191,416,1191,415,1190,415,1190,413,1189,413,1189,411,1188,411,1188,409,1187,409,1187,408,1186,408,1186,406,1185,406,1185,404,1184,404,1184,402,1183,402,1183,401,1182,401,1182,399,1181,399,1181,397,1180,397,1180,395,1179,395,1179,394,1178,394,1178,392,1177,392,1177,390,1176,390,1176,388,1175,388,1175,387,1174,387,1174,385,1173,385,1173,383,1172,383,1172,381,1171,381,1171,380,1170,380,1170,378,1169,378,1169,376,1168,376,1168,374,1167,374,1167,373,1166,373,1166,371,1165,371,1165,369,1164,369,1164,367,1163,367,1163,366,1162,366,1162,364,1161,364,1161,362,1160,362,1160,360,1159,360,1159,359,1158,359,1158,357,1157,357,1157,355,1156,355,1156,353,1155,353,1155,352,1154,352,1154,350,1153,350,1153,348,1152,348,1152,346,1151,346,1151,345,1150,345,1150,343,1149,343,1149,341,1148,341,1148,339,1147,339,1147,338,1146,338,1146,336,1145,336,1145,334,1144,334,1144,332,1143,332,1143,331,1142,331,1142,329,1141,329,1141,327,1140,327,1140,325,1139,325,1139,324,1138,324,1138,322,1137,322,1137,320,1136,320,1136,318,1135,318,1135,317,1134,317,1134,315,1133,315,1133,313,1132,313,1132,311,1131,311,1133,311,1133,310,1134,310,1134,309,1136,309,1136,308,1138,308,1138,307,1140,307,1140,306,1142,306,1142,305,1144,305,1144,304,1145,304,1145,303,1147,303,1147,302,1149,302,1149,301,1151,301,1151,300,1153,300,1153,299,1154,299,1154,298,1156,298,1156,297,1158,297,1158,296,1160,296,1160,295,1162,295,1162,294,1164,294,1164,293,1165,293,1165,292,1167,292,1167,291,1169,291,1169,290,1171,290,1171,289,1173,289,1173,288,1175,288,1175,287,1176,287,1176,286,1178,286,1178,285,1180,285,1180,284,1182,284,1182,283,1184,283,1184,282,1185,282,1185,281,1187,281,1187,280,1189,280,1189,279,1191,279,1191,278,1193,278,1193,277,1195,277,1195,276,1196,276,1196,275,1198,275,1198,274,1200,274,1200,273,1202,273,1202,272,1204,272,1204,271,1205,271,1205,270,1207,270,1207,269,1209,269,1209,268,1622,268,1622,261,1623,261,1623,259,1622,259,1622,258,1623,258,1623,212,1800,212,1800,211" /></svg>